<svg width="24" height="24" viewBox="0 0 24 24" fill="none" xmlns="http://www.w3.org/2000/svg">
<path fill-rule="evenodd" clip-rule="evenodd" d="M24 12.5C24 11.8156 23.4801 11.2609 22.8387 11.2609H1.16129C0.519927 11.2609 0 11.8156 0 12.5C0 13.1844 0.519927 13.7391 1.16129 13.7391H22.8387C23.4801 13.7391 24 13.1844 24 12.5Z" fill="#1C3554"/>
<path fill-rule="evenodd" clip-rule="evenodd" d="M24 4.23913C24 3.55478 23.4801 3 22.8387 3H1.16129C0.519927 3 0 3.55478 0 4.23913C0 4.92348 0.519927 5.47826 1.16129 5.47826H22.8387C23.4801 5.47826 24 4.92348 24 4.23913Z" fill="#1C3554"/>
<path fill-rule="evenodd" clip-rule="evenodd" d="M24 20.7609C24 20.0765 23.4801 19.5217 22.8387 19.5217H1.16129C0.519927 19.5217 0 20.0765 0 20.7609C0 21.4452 0.519927 22 1.16129 22H22.8387C23.4801 22 24 21.4452 24 20.7609Z" fill="#1C3554"/>
</svg>
